<svg xmlns="http://www.w3.org/2000/svg" viewBox="0 0 512 512" focusable="false" {% if include.class %} class="{{ include.class }}"{% endif %} {% if include.width %} class="{{ include.width }}"{% endif %} {% if include.height %} class="{{ include.height }}"{% endif %}>
  <title>Twitter</title>
  <path fill="currentColor" d="M512 97.2c-18.84 8.36-39.08 14-60.33 16.55 21.7-13 38.34-33.58 46.2-58.1-20.3 12.03-42.8 20.77-66.72 25.48C412 60.7 384.7 47.96 354.48 47.96c-58 0-105.04 47.03-105.04 105.03 0 8.23.93 16.25 2.72 23.93-87.3-4.38-164.7-46.2-216.5-109.75-9.05 15.5-14.24 33.56-14.24 52.8 0 36.45 18.55 68.6 46.73 87.44-17.2-.54-33.4-5.27-47.57-13.14v1.32c0 50.9 36.2 93.35 84.25 103-8.8 2.4-18.1 3.7-27.68 3.7-6.76 0-13.34-.67-19.76-1.9 13.36 41.73 52.15 72.1 98.12 72.95-35.95 28.18-81.25 44.97-130.46 44.97-8.48 0-16.84-.5-25.06-1.47 46.5 29.8 101.7 47.2 161.02 47.2 193.2 0 298.87-160.07 298.87-298.88 0-4.55-.1-9.08-.32-13.6 20.53-14.8 38.34-33.3 52.42-54.36z"/>
</svg>
