<svg width="119" height="37" xmlns="http://www.w3.org/2000/svg" xmlns:xlink="http://www.w3.org/1999/xlink"><defs><path id="a" d="M0 .554h35.91V36.48H0z"/></defs><g fill="none" fill-rule="evenodd"><g transform="translate(0 .016)"><mask id="b" fill="#fff"><use xlink:href="#a"/></mask><path d="M17.83 36.48c-.013 0-.025-.003-.032-.003 0 0-.006 0 .01-2.31l.023-3.223s.016-2.31-2.294-2.326L5.36 28.547s-2.31-.016-3.283-1.463C1.103 25.636-.026 22.148 0 18.396.07 8.49 8.143.518 15.73.554c0 0 2.309.012 2.293 2.321L18 6.277s-.016 2.31 2.294 2.326l10.373.073s2.31.016 3.247 1.445c.937 1.43 2.021 4.851 1.995 8.526-.068 9.918-8.164 17.902-18.08 17.833m.057-8.037c5.43.038 9.865-4.335 9.902-9.767.038-5.432-4.334-9.867-9.765-9.905-5.431-.038-9.865 4.335-9.903 9.767-.037 5.432 4.335 9.867 9.766 9.905" fill="#FFF" mask="url(#b)"/></g><path d="M60.73 24.958c-2.246 2.8-5.195 4.2-8.85 4.2-1.53 0-2.93-.258-4.2-.774-1.272-.516-2.36-1.231-3.263-2.145-.904-.914-1.609-2.006-2.115-3.277-.507-1.272-.76-2.671-.76-4.201 0-1.51.248-2.906.745-4.186a9.853 9.853 0 0 1 2.115-3.337 9.621 9.621 0 0 1 3.278-2.205c1.27-.526 2.67-.79 4.2-.79 1.729 0 3.327.288 4.798.864 1.469.577 2.71 1.579 3.723 3.01l-3.485 3.515a6.688 6.688 0 0 0-1.996-1.817c-.776-.457-1.66-.685-2.653-.685-.833 0-1.578.139-2.234.416a4.622 4.622 0 0 0-1.654 1.163 5.197 5.197 0 0 0-1.027 1.743 6.362 6.362 0 0 0-.358 2.16c0 .794.124 1.53.373 2.204.248.676.6 1.262 1.058 1.758a4.786 4.786 0 0 0 1.653 1.162c.645.278 1.365.417 2.16.417 1.152 0 2.09-.203 2.815-.61.725-.408 1.435-1.048 2.13-1.922l3.546 3.337zM73.301 20.697l-2.204-7.3-2.294 7.3h4.498zM68.267 8.78h6.047l7.032 19.872h-5.69l-1.281-4.111H67.73l-1.311 4.111h-5.453l7.3-19.872zM85.025 22.366c.556.556 1.281 1.062 2.175 1.52.894.456 1.877.684 2.95.684.257 0 .526-.024.804-.074.278-.05.526-.134.745-.253.218-.12.397-.278.536-.477.14-.199.209-.457.209-.774 0-.517-.263-.944-.79-1.282-.526-.337-1.296-.675-2.309-1.013l-1.102-.358a12.649 12.649 0 0 1-1.862-.774 7.71 7.71 0 0 1-1.683-1.147 5.387 5.387 0 0 1-1.207-1.58c-.308-.605-.462-1.315-.462-2.13 0-.913.168-1.762.507-2.547a5.894 5.894 0 0 1 1.475-2.055c.644-.586 1.444-1.044 2.398-1.371.953-.328 2.056-.492 3.307-.492.973 0 1.857.09 2.652.268.793.18 1.49.398 2.085.656a8.246 8.246 0 0 1 1.52.834c.416.298.734.566.953.804l-2.681 3.397a10.956 10.956 0 0 0-2.176-1.266 5.77 5.77 0 0 0-2.324-.492c-.258 0-.516.03-.774.09-.258.059-.492.148-.7.268-.209.119-.378.273-.506.461-.13.19-.194.423-.194.7 0 .298.074.557.223.775.149.219.352.407.611.566.258.16.57.304.938.433s.76.263 1.178.401l.953.299c.675.218 1.36.471 2.056.76.695.288 1.32.675 1.877 1.162a5.774 5.774 0 0 1 1.37 1.817c.358.725.536 1.614.536 2.666 0 .914-.214 1.758-.64 2.533a6.372 6.372 0 0 1-1.729 1.996c-.725.556-1.578.988-2.562 1.296-.983.308-2.03.462-3.143.462-1.986 0-3.65-.264-4.99-.79-1.34-.526-2.479-1.236-3.412-2.13l3.188-3.843zM105.669 13.398H99.56V8.779h17.49v4.619H111v15.254h-5.332z" fill="#FFF"/></g></svg>