<svg width="450" height="37" xmlns="http://www.w3.org/2000/svg" xmlns:xlink="http://www.w3.org/1999/xlink"><defs><path id="a" d="M0 .554h35.886V36.48H0z"/><path id="c" d="M0 36.48h449.774V.554H0z"/></defs><g fill="none" fill-rule="evenodd"><path fill="#FFF" d="M123.737 33.285h2.279V3.503h-2.279z"/><g transform="translate(0 .016)"><mask id="b" fill="#fff"><use xlink:href="#a"/></mask><path d="M17.818 36.48c-.013 0-.025-.003-.032-.003 0 0-.006 0 .01-2.31l.023-3.223s.016-2.31-2.292-2.326l-10.17-.071s-2.309-.016-3.282-1.463c-.973-1.448-2.1-4.936-2.074-8.688C.07 8.49 8.137.518 15.72.554c0 0 2.308.012 2.292 2.321l-.024 3.402s-.016 2.31 2.292 2.326l10.367.073s2.308.016 3.245 1.445c.936 1.43 2.02 4.851 1.994 8.526-.07 9.918-8.16 17.902-18.068 17.833m.056-8.037c5.427.038 9.858-4.335 9.896-9.767.038-5.432-4.331-9.867-9.76-9.905-5.426-.038-9.857 4.335-9.895 9.767-.038 5.432 4.331 9.867 9.759 9.905" fill="#FFF" mask="url(#b)"/><path d="M60.689 24.942c-2.244 2.8-5.191 4.2-8.843 4.2-1.529 0-2.929-.258-4.198-.774-1.271-.517-2.358-1.231-3.26-2.145-.904-.914-1.608-2.006-2.115-3.278-.505-1.27-.759-2.67-.759-4.2 0-1.51.248-2.906.745-4.187a9.854 9.854 0 0 1 2.113-3.336 9.614 9.614 0 0 1 3.276-2.205c1.27-.526 2.669-.79 4.198-.79 1.727 0 3.324.288 4.794.864 1.468.577 2.709 1.579 3.721 3.01l-3.483 3.515a6.685 6.685 0 0 0-1.995-1.817c-.775-.457-1.658-.685-2.65-.685-.834 0-1.578.139-2.233.416a4.62 4.62 0 0 0-1.653 1.162 5.197 5.197 0 0 0-1.027 1.743 6.366 6.366 0 0 0-.357 2.16c0 .795.124 1.53.372 2.205s.6 1.262 1.057 1.758a4.783 4.783 0 0 0 1.652 1.162c.645.278 1.365.417 2.159.417 1.151 0 2.089-.203 2.813-.61.725-.408 1.435-1.048 2.13-1.922l3.543 3.337zM73.253 20.681l-2.203-7.3-2.293 7.3h4.496zM68.22 8.763h6.044l7.027 19.873h-5.686l-1.28-4.111h-6.64l-1.31 4.11h-5.45l7.295-19.872zM84.969 22.35c.555.556 1.28 1.062 2.173 1.52.894.456 1.876.684 2.948.684.257 0 .525-.024.803-.074a2.44 2.44 0 0 0 .745-.253c.218-.12.397-.279.536-.477.139-.199.208-.457.208-.775 0-.516-.263-.943-.789-1.28-.526-.338-1.295-.676-2.307-1.014l-1.102-.358a12.636 12.636 0 0 1-1.86-.774 7.705 7.705 0 0 1-1.683-1.147 5.386 5.386 0 0 1-1.206-1.58c-.307-.605-.461-1.315-.461-2.13 0-.913.168-1.762.506-2.547a5.893 5.893 0 0 1 1.474-2.056c.644-.586 1.444-1.043 2.397-1.37.952-.328 2.054-.492 3.304-.492.973 0 1.856.09 2.65.268.794.18 1.49.398 2.084.656a8.24 8.24 0 0 1 1.519.834c.416.298.734.566.953.804l-2.68 3.397a10.947 10.947 0 0 0-2.174-1.266 5.763 5.763 0 0 0-2.322-.492c-.258 0-.516.03-.774.09-.258.059-.491.148-.7.268-.208.119-.377.273-.506.461-.129.19-.193.423-.193.7 0 .298.074.557.223.775.149.219.352.407.61.566.258.16.57.304.938.432.368.13.76.264 1.177.402l.952.298c.675.22 1.36.472 2.055.76.695.289 1.32.676 1.875 1.162a5.774 5.774 0 0 1 1.37 1.818c.357.725.536 1.614.536 2.666 0 .914-.214 1.758-.64 2.533a6.371 6.371 0 0 1-1.728 1.996c-.724.556-1.577.988-2.56 1.296-.982.308-2.03.462-3.141.462-1.985 0-3.647-.264-4.987-.79-1.34-.526-2.477-1.236-3.41-2.13l3.187-3.843zM105.599 13.382h-6.105V8.763h17.478v4.619h-6.044v15.254h-5.33zM143.837 8.747h3.699v12.871c0 5.154-2.817 7.404-7.03 7.404-5.008 0-7.569-2.307-7.569-6.92V8.747h3.899v12.586c0 3.133 1.167 4.215 3.614 4.215 2.362 0 3.387-1.253 3.387-4.215V8.747zM159.173 28.68v-8.087c0-2.306-.627-3.275-2.191-3.275-1.395 0-2.42.912-2.818 2.136v9.226h-3.699V14.442h2.93l.427 1.88h.115c.854-1.225 2.276-2.278 4.524-2.278 2.846 0 4.411 1.338 4.411 5.78v8.856h-3.7zM164.268 14.442h1.963v-2.677l3.7-1.053v3.73h3.471v3.132h-3.472v5.468c0 1.965.314 2.762 1.423 2.762.74 0 1.224-.142 1.907-.456l.655 2.848c-1.025.484-2.476.883-3.87.883-2.59 0-3.814-1.282-3.814-4.329v-7.176h-1.963v-3.132z" fill="#FFF"/><mask id="d" fill="#fff"><use xlink:href="#c"/></mask><path d="M175.556 28.68h3.7V14.442h-3.7V28.68zm1.764-20.246c1.451 0 2.419.883 2.419 1.993s-.968 1.936-2.42 1.936c-1.45 0-2.304-.825-2.304-1.936 0-1.11.854-1.993 2.305-1.993zM186.002 23.896c0 1.339.342 1.908 1.08 1.908.456 0 .854-.057 1.48-.313l.399 2.904c-.598.285-2.02.684-3.329.684-2.134 0-3.33-.94-3.33-3.246V8.747h3.7v15.15zM199.29 23.896c0 1.339.341 1.908 1.08 1.908.456 0 .854-.057 1.48-.313l.399 2.904c-.598.285-2.02.684-3.33.684-2.134 0-3.329-.94-3.329-3.246V8.747h3.7v15.15zM206.673 20.194h5.293c0-.142.028-.313.028-.455 0-1.738-.797-2.734-2.334-2.734-1.934 0-2.816 1.253-2.987 3.19zm8.28 7.261c-1.138.912-3.243 1.623-5.434 1.623-4.582 0-6.631-2.847-6.631-7.517 0-4.983 2.533-7.518 6.83-7.518 2.874 0 5.691 1.339 5.691 5.752 0 .798-.085 1.71-.285 2.705h-8.537c.114 2.393 1.139 3.617 3.642 3.617 1.537 0 2.875-.598 3.501-1.082l1.223 2.42zM224.87 24.295v-1.851a14.49 14.49 0 0 0-1.082-.057c-1.906 0-3.415.484-3.415 1.794 0 1.053.683 1.68 1.765 1.68 1.48 0 2.333-.797 2.731-1.566zm-7.428-9.027c1.509-.684 3.7-1.11 5.976-1.11 3.984 0 5.122 1.964 5.122 4.983 0 1.908-.199 3.844-.199 5.666 0 1.396.114 2.705.512 3.901h-3.016l-.598-1.965h-.142c-.768 1.168-2.077 2.165-4.183 2.165-2.618 0-4.354-1.68-4.354-4.158 0-3.217 2.79-4.584 7.2-4.584.341 0 .711 0 1.081.028.057-.37.057-.683.057-.968 0-1.424-.57-2.021-2.191-2.021-1.48 0-3.33.341-4.382.825l-.883-2.762zM239.096 17.916c-.569-.2-1.11-.313-1.594-.313-1.337 0-2.247.769-2.56 1.88v9.197h-3.7V14.442h2.874l.427 1.88h.114c.654-1.396 1.764-2.193 3.243-2.193.513 0 1.082.114 1.68.313l-.484 3.474zM249.74 28.68v-8.087c0-2.306-.626-3.275-2.19-3.275-1.395 0-2.42.912-2.818 2.136v9.226h-3.699V14.442h2.93l.427 1.88h.115c.854-1.225 2.276-2.278 4.524-2.278 2.846 0 4.41 1.338 4.41 5.78v8.856h-3.698zM256.272 28.68h3.7V14.442h-3.7V28.68zm1.764-20.246c1.452 0 2.419.883 2.419 1.993s-.967 1.936-2.419 1.936c-1.45 0-2.304-.825-2.304-1.936 0-1.11.853-1.993 2.304-1.993zM271.673 28.68v-8.087c0-2.306-.627-3.275-2.191-3.275-1.395 0-2.42.912-2.818 2.136v9.226h-3.699V14.442h2.93l.427 1.88h.115c.854-1.225 2.276-2.278 4.524-2.278 2.846 0 4.411 1.338 4.411 5.78v8.856h-3.7zM286.529 24.01v-6.407c-.541-.228-1.28-.37-2.192-.37-1.878 0-3.016 1.367-3.016 4.47 0 2.762.939 4.243 2.647 4.243 1.422 0 2.162-.655 2.56-1.936zm3.699 4.67c0 4.13-2.362 6.037-6.374 6.037-2.704 0-4.212-.456-5.009-.883l.768-2.933c.883.342 1.992.769 3.672.769 2.59 0 3.328-1.168 3.328-3.19v-.91h-.113c-.683.91-1.792 1.337-3.529 1.337-3.642 0-5.463-2.249-5.463-7.061 0-5.04 2.504-7.745 7.114-7.745 2.419 0 4.382.398 5.606.853V28.68zM306.503 28.68v-8.087c0-2.306-.541-3.275-2.249-3.275-1.252 0-2.418.94-2.76 2.278v9.084h-3.7V8.747h3.7v7.29h.114c.91-1.196 2.191-1.993 4.212-1.993 2.902 0 4.382 1.338 4.382 5.78v8.856h-3.7zM320.32 24.295v-1.851a14.49 14.49 0 0 0-1.082-.057c-1.906 0-3.415.484-3.415 1.794 0 1.053.683 1.68 1.764 1.68 1.48 0 2.334-.797 2.732-1.566zm-7.428-9.027c1.508-.684 3.7-1.11 5.976-1.11 3.984 0 5.122 1.964 5.122 4.983 0 1.908-.199 3.844-.199 5.666 0 1.396.114 2.705.512 3.901h-3.016l-.598-1.965h-.142c-.768 1.168-2.077 2.165-4.183 2.165-2.618 0-4.354-1.68-4.354-4.158 0-3.217 2.789-4.584 7.2-4.584.34 0 .711 0 1.08.028.058-.37.058-.683.058-.968 0-1.424-.57-2.021-2.192-2.021-1.48 0-3.33.341-4.382.825l-.882-2.762zM326.129 18.372c0-2.79 1.736-4.329 4.866-4.329 2.134 0 3.984.541 4.98 1.111l-.826 2.677c-.882-.342-2.305-.826-3.67-.826-1.11 0-1.651.398-1.651 1.281 0 2.08 6.489 1.168 6.489 6.151 0 2.876-1.88 4.642-5.522 4.642-1.992 0-3.898-.598-4.98-1.282l1.025-2.762c.882.484 2.447 1.082 3.955 1.082 1.11 0 1.822-.37 1.822-1.367 0-2.278-6.488-1.253-6.488-6.378M352.364 28.68v-8.087c0-2.306-.627-3.275-2.192-3.275-1.394 0-2.419.912-2.817 2.136v9.226h-3.7V14.442h2.932l.426 1.88h.115c.854-1.225 2.276-2.278 4.524-2.278 2.846 0 4.41 1.338 4.41 5.78v8.856h-3.698zM364.871 25.946c1.907 0 2.875-1.367 2.875-4.385 0-2.62-.798-4.385-2.875-4.385-1.82 0-2.902 1.281-2.902 4.385 0 2.506.854 4.385 2.902 4.385m0-11.902c4.525 0 6.688 3.018 6.688 7.517 0 4.784-2.448 7.517-6.688 7.517-4.524 0-6.715-3.018-6.715-7.517 0-4.784 2.476-7.517 6.715-7.517M382.285 23.896c0 1.339.342 1.908 1.081 1.908.455 0 .853-.057 1.48-.313l.398 2.904c-.597.285-2.02.684-3.329.684-2.134 0-3.33-.94-3.33-3.246V8.747h3.7v15.15zM386.805 28.68h3.7V14.442h-3.7V28.68zm1.765-20.246c1.45 0 2.418.883 2.418 1.993s-.967 1.936-2.418 1.936c-1.452 0-2.305-.825-2.305-1.936 0-1.11.853-1.993 2.305-1.993zM401.58 28.68v-7.745c0-2.591-.37-3.617-1.907-3.617-1.28 0-2.048.798-2.475 1.88v9.482h-3.7V14.442h2.874l.427 1.88h.114c.882-1.225 2.134-2.278 4.268-2.278 1.793 0 2.96.683 3.586 2.42.883-1.48 2.248-2.42 4.155-2.42 3.159 0 4.44 1.338 4.44 6.093v8.543h-3.7v-8.002c0-2.22-.313-3.36-1.936-3.36-1.337 0-2.076.77-2.447 2.022v9.34h-3.7zM416.198 28.68h3.7V14.442h-3.7V28.68zm1.765-20.246c1.451 0 2.418.883 2.418 1.993s-.967 1.936-2.418 1.936c-1.452 0-2.305-.825-2.305-1.936 0-1.11.853-1.993 2.305-1.993zM421.594 14.442h1.963v-2.677l3.7-1.053v3.73h3.471v3.132h-3.472v5.468c0 1.965.314 2.762 1.423 2.762.74 0 1.224-.142 1.907-.456l.655 2.848c-1.025.484-2.476.883-3.87.883-2.59 0-3.814-1.282-3.814-4.329v-7.176h-1.963v-3.132zM432.62 18.372c0-2.79 1.736-4.329 4.866-4.329 2.134 0 3.984.541 4.98 1.111l-.825 2.677c-.883-.342-2.306-.826-3.671-.826-1.11 0-1.65.398-1.65 1.281 0 2.08 6.488 1.168 6.488 6.151 0 2.876-1.879 4.642-5.522 4.642-1.992 0-3.897-.598-4.98-1.282l1.026-2.762c.881.484 2.447 1.082 3.954 1.082 1.11 0 1.822-.37 1.822-1.367 0-2.278-6.488-1.253-6.488-6.378M446.311 14.116v.779h.373c.427 0 .668-.12.668-.439 0-.241-.23-.384-.635-.384-.154 0-.318 0-.406.044zm-.57-.427c.23-.066.724-.11 1.096-.11.614 0 1.118.23 1.118.855 0 .461-.34.724-.778.746l.307.154.81 1.195h-.667l-.79-1.14-.526-.165v1.305h-.57v-2.84zm1.129 3.684c1.272 0 2.214-.723 2.214-2.259 0-1.513-.998-2.26-2.214-2.26-1.282 0-2.214.747-2.214 2.26 0 1.514 1.008 2.26 2.214 2.26zm0-5.165c1.622 0 2.904 1.03 2.904 2.906 0 1.876-1.326 2.907-2.904 2.907-1.622 0-2.904-1.031-2.904-2.907 0-1.875 1.326-2.906 2.904-2.906z" fill="#FFF" mask="url(#d)"/></g></g></svg>