<svg xmlns="http://www.w3.org/2000/svg" xmlns:xlink="http://www.w3.org/1999/xlink" viewBox="0 0 240 240" focusable="false" role="img" {% if class %} class="{{ class }}"{% endif %}{% if width %} width="{{ width }}"{% endif %}{% if height %} height="{{ height }}"{% endif %}>
  <title>{% if title %}{{title}{% else %}Figuration{% endif %}</title>
  <path fill="currentColor" d="M33.2 45L0 87l12 51.7c6.6 28.4 12.3 52 12.7 52.4.5.4 22.2 10.9 48.3 23.3l47.4 22.6 48-23.3 48-23.3 11.7-51.9c6.4-28.6 11.4-52.5 11-53-.4-.6-15.5-19.3-33.5-41.8L172.9 3H66.4L33.2 45zM197 52c17.1 21.4 29.4 37.7 29.3 38.7-.6 4.9-20.3 90.7-21 91.4-1.1 1.1-83.6 41.1-84.8 41.2-1.8 0-85-40.2-85.8-41.5-.4-.7-5.5-21.7-11.2-46.6L13 90l28.7-36.3C57.4 33.8 71 16.9 71.8 16.2c1.2-.9 12.4-1.2 48.6-1.1h47.1L197 52z"/>
  <path fill="currentColor" d="M81 113.5V182h22v-58h50v-21h-50l.2-18.8.3-18.7 29.3-.3L162 65V45H81v68.5z"/>
</svg>
