<?xml version="1.0" standalone="no"?>
<!DOCTYPE svg PUBLIC "-//W3C//DTD SVG 20010904//EN"
 "http://www.w3.org/TR/2001/REC-SVG-20010904/DTD/svg10.dtd">
<svg version="1.0" xmlns="http://www.w3.org/2000/svg"
 width="880.000000pt" height="880.000000pt" viewBox="0 0 880.000000 880.000000"
 preserveAspectRatio="xMidYMid meet">
<metadata>
Created by potrace 1.11, written by Peter Selinger 2001-2013
</metadata>
<g transform="translate(0.000000,880.000000) scale(0.100000,-0.100000)"
fill="#000000" stroke="none">
<path d="M1239 7144 c-733 -926 -1213 -1542 -1211 -1552 8 -44 556 -2399 648
-2786 101 -425 242 -998 247 -1002 21 -18 785 -386 2326 -1121 l1183 -564
1747 847 c960 466 1751 852 1757 858 10 10 151 626 454 1981 168 751 305 1396
355 1665 l34 184 -674 841 c-371 462 -916 1142 -1212 1510 l-539 670 -1951 3
-1951 2 -1213 -1536z m4719 -361 l-3 -368 -810 -6 c-445 -3 -924 -7 -1062 -8
l-253 -1 0 -685 0 -685 898 -2 897 -3 3 -387 2 -388 -900 0 -900 0 0 -1059 0
-1060 -42 -6 c-24 -3 -214 -5 -423 -3 l-380 3 -3 2513 -2 2512 1490 0 1490 0
-2 -367z"/>
</g>
</svg>
